<svg xmlns="http://www.w3.org/2000/svg" fill="none" viewBox="0 0 24 24"><path fill="#000" fill-rule="evenodd" d="M8.583 8.205c0-2.213 1.602-3.872 3.417-3.872 1.816 0 3.417 1.659 3.417 3.872 0 1.11-.412 2.346-1.083 3.296-.68.961-1.52 1.498-2.33 1.499h-.007c-.81-.001-1.652-.538-2.33-1.498-.672-.95-1.084-2.188-1.084-3.297Zm.39 4.819a6.413 6.413 0 0 1-.532-.657c-.836-1.184-1.358-2.72-1.358-4.162 0-2.892 2.13-5.372 4.917-5.372 2.786 0 4.917 2.48 4.917 5.372 0 1.442-.522 2.978-1.358 4.162a6.4 6.4 0 0 1-.531.657 5.75 5.75 0 0 1 5.222 5.726v1.38l-.521.168-.229-.715.229.715h-.002l-.003.001-.01.003-.028.009a11.137 11.137 0 0 1-.492.131c-.338.083-.835.19-1.486.298-1.301.215-3.217.427-5.708.427-2.49 0-4.406-.212-5.708-.427a20.19 20.19 0 0 1-1.486-.298 11.173 11.173 0 0 1-.492-.131l-.029-.009-.009-.003h-.003v-.001l.227-.715-.228.715-.522-.167V18.75a5.75 5.75 0 0 1 5.222-5.726Zm3.023 1.476H9.5a4.25 4.25 0 0 0-4.25 4.25v.256c.301.071.731.162 1.286.254 1.225.202 3.059.407 5.464.407 2.405 0 4.24-.205 5.464-.407a19.25 19.25 0 0 0 1.286-.254v-.256a4.25 4.25 0 0 0-4.25-4.25h-2.504Z" clip-rule="evenodd"/></svg>